<?xml version="1.0" encoding="utf-8"?>
<!-- Generator: Adobe Illustrator 19.2.1, SVG Export Plug-In . SVG Version: 6.00 Build 0)  -->
<svg version="1.1" id="Layer_1" xmlns="http://www.w3.org/2000/svg" xmlns:xlink="http://www.w3.org/1999/xlink" x="0px" y="0px"
	 viewBox="0 0 648 157.2" style="enable-background:new 0 0 648 157.2;" xml:space="preserve">
<style type="text/css">
	.st0{fill:#BF484D;}
	.st1{fill:#FFFFFF;}
</style>
<g>
	<path class="st0" d="M93.9,104.2c-0.4,3.2-1.3,6.4-2.7,9.3c-1.4,3-3.1,5.8-5.1,8.3c-2,2.6-4.3,5-6.9,7.2c-2.6,2.2-5.2,4.2-7.9,5.9
		c-5.6,3.6-11.5,6.4-17.7,8.3c-6.2,1.9-12.5,2.6-18.9,2.2c-4-0.4-7.8-1.2-11.5-2.6c-3.7-1.4-7.3-3-10.8-4.8c-0.8-2.7-1.5-5.4-2-8.1
		c-0.6-2.7-0.9-5.5-1-8.3c-0.1-1.2,0.4-2.2,1.3-3.1c0.9-0.8,2-1.3,3.2-1.4c1.6,0.2,3.1,0.5,4.5,1c1.4,0.5,2.8,0.9,4.3,1.2
		c1.4,0.5,2.9,0.9,4.4,1.4c1.5,0.5,3,0.8,4.6,0.9c2.2,0.1,4.7,0.1,7.3,0c2.6-0.1,5.3-0.4,8-0.9c2.7-0.5,5.3-1.2,7.8-2.1
		c2.5-0.9,4.8-2.1,6.9-3.6c2-1.5,3.8-3.3,5.1-5.5c1.4-2.1,2.3-4.7,2.6-7.6c0.2-0.8,0.4-1.5,0.6-2.2c0.1-0.7,0.3-1.4,0.3-2.2
		l-0.1-1.4l-0.8-0.5c-2.3,0.1-4.6,0.2-7,0.4c-2.4,0.1-4.7,0.3-7,0.5c-2.3,0.1-4.6,0.2-6.9,0.3c-2.3,0.1-4.7,0.1-6.9,0.1
		c-2.2-0.1-4.3-0.2-6.5-0.4c-2.2-0.2-4.3-0.6-6.4-1.1c-2.1-0.5-4.1-1.3-6.1-2.2c-2-0.9-3.7-2-5.4-3.4c-1.6-1.3-2.9-2.9-3.8-4.6
		c-0.9-1.8-1.6-3.7-2.1-5.7c-0.5-2-0.7-4.1-0.7-6.2c0-2.1,0.1-4.2,0.5-6.2c0.6-6.2,2.4-12.1,5.5-17.8c3-5.7,6.9-10.8,11.6-15.3
		c4.4-4.6,9.5-8.2,15.2-11c5.7-2.8,11.7-4.1,17.9-4c3.8-0.1,7.7,0.4,11.5,1.3c3.8,0.9,7.4,2.3,10.7,4.1c3.3,1.9,6.1,4.2,8.6,7
		c2.5,2.8,4.2,6.2,5.3,10c0.3,0.7,0.5,1.4,0.6,2.1c0.1,0.7,0.2,1.4,0.2,2.1c0.1,1.1-0.1,2-0.6,2.7c-0.5,0.7-1.2,1.3-2,1.7
		c-0.8,0.4-1.7,0.6-2.7,0.8c-1,0.1-1.8,0.1-2.6,0c-4.3-0.6-8.4-1.7-12.1-3.4c-1.9-0.8-3.8-1.5-5.9-2.1c-2-0.5-4.1-0.9-6.2-1.2
		c-3.2-0.1-6.4,0.4-9.6,1.3c-3.2,0.9-6.2,2.2-8.9,4c-1.4,0.8-2.7,1.8-4,2.9c-1.3,1.1-2.4,2.3-3.4,3.7c-1,1.3-1.8,2.7-2.4,4.2
		c-0.6,1.5-1,3-1,4.6c-0.1,0.8-0.1,1.7,0.1,2.5c0.2,0.8,0.5,1.6,1,2.2c0.5,0.6,1.1,1.1,1.8,1.5c0.8,0.4,1.6,0.5,2.5,0.3
		c1.9,0,3.8-0.2,5.7-0.5c1.9-0.4,3.8-0.7,5.6-1c2-0.3,4-0.6,5.9-1c1.9-0.4,3.8-0.5,5.7-0.5c4.7-0.1,9.2,0.8,13.5,2.7
		c4.3,1.8,7.8,4.6,10.4,8.3c1.3,1.7,2.4,3.6,3.2,5.6c0.8,2,1.4,4.1,1.7,6.2c0.4,2.2,0.6,4.4,0.6,6.6C94.1,99.8,94,102,93.9,104.2z"
		/>
	<path class="st0" d="M173.4,132.9c-0.3,1.3-0.9,2.5-1.7,3.6c-0.8,1.1-1.8,2-2.8,2.9c-1.1,0.8-2.2,1.5-3.5,2.1
		c-1.2,0.6-2.5,0.9-3.7,1.1c-1.5,0.4-2.8,0.3-4-0.2c-1.2-0.5-2.2-1.2-3.1-2.1c-0.9-0.9-1.6-2-2.2-3.2c-0.6-1.2-1-2.5-1.3-3.7
		c-0.8-4-1.3-7.7-1.4-11.1c-0.1-3.4-0.1-6.7,0-10c0.2-2.3,0.3-4.7,0.2-7.1c-0.1-2.4-0.1-4.8,0-7.2c-3.1,0.2-6.2,0.4-9.3,0.5
		c-3.1,0.1-6.3,0.1-9.5,0.1c-1.9,0-3.7,0-5.4,0c-1.7,0-3.5-0.1-5.4-0.3c-0.5,2.6-0.9,5.3-1.3,7.8c-0.4,2.6-0.7,5.2-0.9,7.8
		c-0.1,1.9-0.2,3.8-0.1,5.6c0.1,1.8,0.1,3.7,0,5.6c0.1,1.7,0.1,3.5,0.1,5.4c-0.1,1.8-0.2,3.7-0.3,5.5c0.1,1.4-0.2,2.6-0.9,3.8
		c-0.6,1.1-1.5,2.1-2.5,2.8c-1,0.8-2.2,1.2-3.4,1.5c-1.3,0.2-2.5,0.1-3.7-0.3c-3-0.5-5.4-1.7-7.2-3.5c-1.8-1.9-3.2-4.1-4.1-6.7
		c-0.9-2.6-1.5-5.3-1.8-8.2c-0.3-2.9-0.4-5.6-0.3-8.2c0.2-3.1,0.5-6.1,0.9-9.1c0.3-3,0.8-6,1.3-9.1c0.7-3.2,1.3-6.3,1.8-9.5
		s0.9-6.3,1.2-9.5c0.2-2.9,0.5-5.8,0.6-8.8c0.2-3,0.3-5.9,0.3-8.9c0-2.9,0.1-5.8,0.4-8.7c0.3-2.9,0.6-5.8,0.9-8.7
		c0.5-2.2,1-4.4,1.6-6.7c0.6-2.2,1.4-4.4,2.5-6.5c0.4-1,0.9-2.1,1.5-3.2c0.6-1.1,1.2-2.1,2-3.1c0.8-1,1.6-1.8,2.5-2.5
		c0.9-0.7,2-1.1,3.2-1.2c3.2-0.6,5.8-0.2,7.8,1.1c1.9,1.4,3.4,3.2,4.4,5.6c1,2.4,1.5,5,1.7,7.9c0.1,2.9,0,5.5-0.4,7.8
		c-0.5,5.2-1.2,10.3-1.8,15.5c-0.7,5.2-1.4,10.4-2,15.6c1.9,0.2,3.8,0.3,5.8,0.3c1.9,0,3.8,0,5.8,0c2.4,0,4.8-0.1,7.2-0.3
		c2.4-0.2,4.8-0.4,7.2-0.5c0.1-0.5,0.1-1.1,0-1.6c0-0.5,0-1,0-1.6c0.1-1,0.2-2,0.3-3s0.1-2,0.1-3c0.3-1,0.5-2,0.5-3
		c0.1-1,0.1-2,0.3-3c0.1-2.1,0.1-4.1,0.1-6.1c-0.1-2,0-4,0.1-6.1c-0.1-2.1-0.1-4.2,0-6.2c0.1-2,0.2-4.1,0.3-6.2
		c0-1.6,0.2-3.3,0.6-5.2c0.4-1.9,1.1-3.6,2-5.1s2.1-2.8,3.5-3.7c1.4-0.9,3.2-1.2,5.2-0.9c2.6,0.1,4.8,0.8,6.6,2.1
		c1.8,1.3,3.3,2.9,4.4,4.9c1.1,2,1.8,4.2,2.3,6.6c0.5,2.4,0.6,4.7,0.4,7c-0.1,2.4-0.2,4.8-0.4,7.2c-0.1,2.4-0.3,4.8-0.5,7.2
		c-0.1,2.5-0.3,4.9-0.5,7.4c-0.2,2.5-0.3,5-0.5,7.5c-0.8,10.3-1.2,20.5-1.3,30.7s-0.2,20.4-0.2,30.7L173.4,132.9z"/>
	<path class="st0" d="M264.3,128.8c-0.2,1.6-0.7,3.2-1.4,4.9c-0.7,1.6-1.6,3.1-2.7,4.4c-1.1,1.3-2.3,2.4-3.8,3.3
		c-1.4,0.9-3,1.4-4.8,1.6c-2.1,0.3-4.2,0.3-6.2-0.1c-2-0.4-3.6-1.4-4.8-3.2c-1.1-1.4-1.9-3.1-2.3-5c-0.4-1.9-0.6-3.8-0.8-5.7
		c0-2.2-0.1-4.4-0.2-6.6c-0.2-2.2-0.3-4.4-0.4-6.5c-1.3,0.1-2.6,0.1-3.8,0c-1.2,0-2.5,0-3.8,0c-1.3,0-2.6-0.1-3.9-0.2
		c-1.3-0.1-2.6-0.1-3.9,0c-2.2,0-4.3,0.1-6.4,0.2c-2.1,0.1-4.2,0.4-6.4,0.7c-1,2.9-2,5.7-2.9,8.5c-0.9,2.8-1.9,5.6-2.9,8.5
		c-0.5,1.1-1,2.3-1.7,3.5c-0.6,1.3-1.4,2.4-2.3,3.4c-0.9,1-1.8,1.8-2.9,2.5c-1.1,0.6-2.3,0.9-3.8,0.8c-2.1-0.2-4-0.8-5.8-1.8
		c-1.7-1-3.2-2.4-4.2-4.1c-0.7-1.7-1.2-3.6-1.5-5.6c-0.3-2-0.5-3.9-0.4-5.9c0.4-7,1.5-14,3.2-20.8c1.7-6.8,3.5-13.6,5.3-20.4
		c2.1-6.7,4.3-13.4,6.5-20c2.3-6.6,4.9-13.1,7.8-19.6c1.4-2.8,3-5.7,4.7-8.7c1.7-3.1,3.7-5.9,5.9-8.5c2.2-2.6,4.7-4.8,7.5-6.5
		c2.8-1.8,5.9-2.8,9.4-3c3.1,0,5.9,0.7,8.3,2c2.4,1.4,4.5,3.1,6.3,5.3c1.7,2.2,3.2,4.7,4.3,7.4c1.1,2.7,2,5.4,2.6,8.1
		c1.3,5.4,2.3,10.8,3,16.2c0.7,5.5,1.3,11,1.8,16.6c0.4,5.5,0.8,10.9,1.3,16.2c0.5,5.3,1.3,10.6,2.5,15.9c0.6,1.8,1.2,3.6,1.8,5.4
		c0.6,1.8,1.1,3.6,1.4,5.5c0.4,1.9,0.6,3.7,0.8,5.6C264.8,124.9,264.6,126.8,264.3,128.8z M236.1,92.6c-0.1-4-0.3-7.9-0.6-11.8
		c-0.3-3.9-0.5-7.8-0.8-11.8c-0.4-3.7-0.9-7.4-1.5-11.1c-0.6-3.7-1.7-7.2-3.3-10.6c-2.5,3.4-4.5,6.9-6.2,10.6
		c-1.7,3.7-3.1,7.5-4.3,11.3c-1.2,3.8-2.2,7.7-3.1,11.7c-0.8,3.9-1.6,7.8-2.3,11.7c3.7,0,7.4,0,11,0.1
		C228.7,92.8,232.3,92.8,236.1,92.6z"/>
	<path class="st0" d="M338,36.7c-0.2,3.2-0.6,6.3-1.1,9.4c-0.5,3.1-1.3,6.2-2.3,9.2c-1,3.2-2.1,6.3-3.2,9.4
		c-1.1,3.1-2.1,6.2-3.2,9.4c-1.7,6.7-3.7,13.3-5.7,19.8c-2.1,6.5-4.1,13.1-6.1,19.6c-1.1,2.8-2.3,5.9-3.4,9.3
		c-1.1,3.4-2.5,6.6-4,9.6c-1.6,3.1-3.5,5.8-5.7,8.3c-2.2,2.4-5,4.1-8.4,5.1c-1.1,0-2.2,0-3.4-0.1c-1.2-0.1-2.3-0.3-3.4-0.5
		c-1.1-0.2-2.2-0.6-3.2-1c-1-0.5-1.9-1.1-2.7-1.8c-1.5-1.7-2.7-3.6-3.7-5.6c-0.9-2.1-1.7-4.2-2.2-6.4c-1.4-4.6-2.5-9.3-3.3-14.1
		c-0.8-4.8-1.5-9.6-2.1-14.4c-0.7-4.9-1.1-9.7-1.4-14.5c-0.3-4.8-0.6-9.6-0.9-14.5c-0.7-5.1-1.4-10.2-1.9-15.2
		c-0.5-5-0.9-10.1-1.1-15.3c-0.1-1.2-0.1-2.4-0.2-3.6c-0.1-1.2,0.1-2.4,0.4-3.6c0.2-1.3,0.5-2.7,0.9-4.1c0.4-1.4,1-2.7,1.7-3.8
		s1.6-2.2,2.7-3c1.1-0.8,2.4-1.4,3.9-1.6c1.3-0.3,2.6-0.3,3.7,0c1.1,0.3,2.2,0.8,3.1,1.5c0.9,0.7,1.7,1.6,2.3,2.6
		c0.6,1,1.1,2.1,1.4,3.2c0.5,2.6,0.8,5.1,1.1,7.7c0.2,2.5,0.4,5,0.5,7.6c0.4,4.9,0.8,9.7,1.3,14.6c0.4,4.8,0.9,9.7,1.4,14.6
		c0.5,4.9,1.3,9.8,2.3,14.7c1,4.8,2,9.6,3.1,14.4c1.4-3.4,2.6-6.9,3.6-10.5c1-3.5,2-7.1,2.9-10.7c0.9-3.6,1.8-7.2,2.8-10.8
		c1-3.6,1.9-7.2,2.7-10.8c1.1-4,2.2-8,3.5-12c1.2-4,2.5-7.9,3.9-11.7c0.8-1.7,1.5-3.5,2.3-5.4c0.8-1.8,1.6-3.5,2.5-5
		c0.9-1.5,2-2.8,3.2-3.8c1.2-1.1,2.7-1.7,4.4-1.9c2,0.2,3.7,0.9,5.1,1.9c1.4,1,2.6,2.3,3.5,3.7c0.9,1.5,1.6,3.1,2,4.9
		C338,33.1,338.1,34.9,338,36.7z"/>
	<g>
		<path class="st0" d="M540.8,129.6c-0.1,2.2-0.6,4.3-1.5,6.3c-0.9,2-2.1,3.9-3.5,5.5c-1.4,1.7-3.1,3.2-5,4.2
			c-2,1.1-4.1,1.6-6.2,1.6c-2.3,0.2-4.4-0.2-6.1-1.3c-1.7-1-3.2-2.4-4.3-4c-1.1-1.7-1.9-3.5-2.3-5.6c-0.4-2.1-0.4-4.2,0-6.3
			c0.3-1.9,0.9-3.7,1.9-5.4c1-1.7,2.2-3.2,3.6-4.5c1.4-1.3,3.1-2.3,4.9-3c1.8-0.7,3.7-1.1,5.6-1.1c1.9-0.2,3.7,0.1,5.4,0.7
			c1.7,0.7,3.1,1.6,4.3,2.9c1.2,1.3,2.1,2.8,2.7,4.5C540.8,126,541,127.7,540.8,129.6z"/>
		<path class="st0" d="M586.7,129.6c-0.1,2.2-0.6,4.3-1.5,6.3c-0.9,2-2.1,3.9-3.5,5.5c-1.4,1.7-3.1,3.2-5,4.2
			c-2,1.1-4.1,1.6-6.2,1.6c-2.3,0.2-4.4-0.2-6.1-1.3c-1.7-1-3.2-2.4-4.3-4c-1.1-1.7-1.9-3.5-2.3-5.6c-0.4-2.1-0.4-4.2,0-6.3
			c0.3-1.9,0.9-3.7,1.9-5.4c1-1.7,2.2-3.2,3.6-4.5c1.4-1.3,3.1-2.3,4.9-3c1.8-0.7,3.7-1.1,5.6-1.1c1.9-0.2,3.7,0.1,5.4,0.7
			c1.7,0.7,3.1,1.6,4.3,2.9c1.2,1.3,2.1,2.8,2.7,4.5C586.7,126,586.9,127.7,586.7,129.6z"/>
		<path class="st0" d="M632.6,129.6c-0.1,2.2-0.6,4.3-1.5,6.3c-0.9,2-2.1,3.9-3.5,5.5c-1.4,1.7-3.1,3.2-5,4.2
			c-2,1.1-4.1,1.6-6.2,1.6c-2.3,0.2-4.4-0.2-6.1-1.3c-1.7-1-3.2-2.4-4.3-4c-1.1-1.7-1.9-3.5-2.3-5.6c-0.4-2.1-0.4-4.2,0-6.3
			c0.3-1.9,0.9-3.7,1.9-5.4c1-1.7,2.2-3.2,3.6-4.5c1.4-1.3,3.1-2.3,4.9-3c1.8-0.7,3.7-1.1,5.6-1.1c1.9-0.2,3.7,0.1,5.4,0.7
			c1.7,0.7,3.1,1.6,4.3,2.9c1.2,1.3,2.1,2.8,2.7,4.5C632.6,126,632.8,127.7,632.6,129.6z"/>
	</g>
	<path class="st0" d="M408,98.9c-3.3,0.4-6.5,1.2-9.7,2.4c-4.1,1.5-8.1,3.3-11.9,5.3c-3.8,1.9-7.6,3.8-11.3,5.8
		c-3.8,1.9-7.7,3.5-11.8,4.9c-0.7-2.7-1-5.5-1.1-8.3c-0.1-2.8-0.1-5.6,0-8.5c0.1-1.4,0.3-2.9,0.6-4.4s0.9-3,1.5-4.4
		c0.7-1.4,1.5-2.7,2.5-3.9c1-1.2,2.1-2.3,3.5-3.2c2.8-1.7,5.8-2.8,8.8-3.3c3-0.5,6.1-1,9.1-1.4c3.2-0.2,6.3-0.5,9.5-0.9
		c3.1-0.3,6.3-0.7,9.5-1.1c0.3-0.1,0.6-0.1,0.9-0.2v-23c-0.3,0-0.6-0.1-0.9,0c-3.2-0.1-6.5,0.1-9.6,0.6c-3.2,0.5-6.4,1-9.6,1.6
		c-3.2,0.7-6.5,1.4-9.7,2.1c-3.2,0.7-6.4,1.2-9.7,1.5v-1c0.1-1.1,0.3-2.1,0.5-3.2c0.2-1,0.5-2.1,0.8-3.2c0.6-2.4,1.9-4.4,3.9-5.9
		c2-1.5,4.1-2.7,6.4-3.6c2.3-0.8,4.6-1.4,7-1.7c2.4-0.3,4.8-0.5,7.2-0.5c2.5,0.1,5,0.1,7.5,0c2.1,0,4.2-0.1,6.3-0.3V20.1
		c-0.7-0.2-1.5-0.3-2.3-0.4c-5.2-0.4-10.3-0.4-15.5,0c-5.1,0.4-10.3,1.1-15.5,2.2c-2.2,0.6-4.4,1.2-6.9,1.8c-2.4,0.6-4.7,1.4-7,2.3
		c-2.3,0.9-4.3,2.1-6.3,3.5c-1.9,1.4-3.5,3.2-4.9,5.4c-1,3.7-2,7.4-3,11.1c-1,3.7-1.9,7.4-2.7,11.1c-1.6,7.5-3.1,15-4.6,22.4
		c-1.4,7.4-2.4,14.9-2.9,22.5c-0.2,4.3-0.2,8.6,0.1,12.9c0.2,4.3,0.9,8.5,1.9,12.6c0.5,2,1.1,4.1,1.8,6.2s1.6,3.9,3,5.5
		c1.2,1.7,2.8,3,4.7,3.7c1.9,0.8,3.9,1.2,6,1.5c3.4-0.1,6.7-0.5,9.9-1.3c3.2-0.8,6.4-1.8,9.6-3c3.2-1.2,6.3-2.6,9.4-4.1
		c3.1-1.5,6.2-3,9.2-4.4c2.8-1.7,5.8-3.3,8.9-4.9c2.3-1.2,4.6-2.4,6.8-3.7V98.9z"/>
	<g>
		<path d="M449.2,81.7l-5.2,1.5v3h11.2c0.5,14.9,2.3,21.4,2.4,21.7l0.2,0.7l4.9-0.3l0.4,2.8l-9.2,1.9l-1.1-5.6l-6,0.3l0.1,0.9
			c0.4,6.9,1.9,11.4,4.4,13.4c1.5,1.2,2.8,1,2.8,1l12.4-0.1l0,0c1.4,0,3.2-0.3,3.4-0.4c0,0,0.1,0,0.1,0c2.5-0.8,3.8-0.2,3.8-0.2
			c0,0,0.1,0,0.1,0.1c4.5,1.7,15.2,2.7,15.7,2.8c0.1,0,0.2,0,0.2,0c0.9-0.1,1.4-0.6,1.7-0.9c1.8,0,9.4-0.6,22.4-9.1
			c0.2-0.1,0.4-0.2,0.6-0.4c14.6-9.7,26.8-11.6,48.7-14.4c0.8,0.2,2.3,0.4,4.9,0c1-0.1,20.5-2.5,45.5-3.5c57-3.7,0-3.4,0-3.4
			c-25.7,1-45.7,3.5-46,3.5c0,0,0,0-0.1,0c-2.3,0.4-3.3,0.1-3.5,0.1c-0.2-0.1-0.4-0.1-0.7-0.1c-8.8-3.8-11.2-11.6-11.2-15.6
			c0,0,0,0,0-0.1l0-0.2c0,0,0,0,0,0c0-1.4,0.5-10.9,11.1-15.3c0.3,0,0.5,0,0.8-0.1c0.2-0.1,1.3-0.3,3.5,0.1c0,0,0,0,0.1,0
			c0.3,0,20.3,2.5,46,3.5c0,0,56.6,0.4,0-3.4c-25-1-44.6-3.3-45.5-3.5c-2.5-0.4-4.1-0.2-4.9,0c-21.9-2.8-34-4.8-48.7-14.4
			c-0.2-0.1-0.4-0.2-0.6-0.4c-13.1-8.5-20.6-9.1-22.4-9.1c-0.3-0.4-0.8-0.8-1.7-0.9c-0.1,0-0.2,0-0.2,0c-0.5,0-11.2,1-15.7,2.8
			c0,0-0.1,0-0.1,0c0,0-1.3,0.6-3.8-0.2c0,0-0.1,0-0.1,0c-0.2,0-1.4-0.2-2.6-0.3l0,0c-12.2-1.2-15.4,0.3-16.1,1.1
			c-3.8,2.3-4.7,10.9-4.8,11.9l-0.1,0.8l7.2,1l0.9-5.8l7.6,1.7V53l-4.6-0.7l-0.2,0.9c-1,5.2-2,17.8-2.3,21.7l-11,0.2v2.7l5.3,1.3
			L449.2,81.7z M459.1,106.7c-0.5-2-1.7-8.6-2.2-20.5h1.5v-2.1l1.2,0.1l0,0.1c0,0.2,0,0.3,0,0.5c0,6.9,2.2,20,2.5,21.7L459.1,106.7z
			 M462.6,106.5c-0.2-1.4-2.6-15.4-2.5-22.2l0-0.1l0.4,0c0.5,11.2,2.1,20.1,2.5,22.3L462.6,106.5z M489.6,123.2
			c-1.3-0.1-11-1.1-15-2.6c-0.4-0.2-2.2-0.9-5.2,0.1c-0.4,0.1-3,0.3-5.3,0.5l-10.2,0.1c0,0-0.7,0.1-1.6-0.6
			c-1.1-0.9-3.1-3.6-3.7-11.3l2.7-0.2l1.1,5.9l12.6-2.6l-0.6-4.4l4.2,2.6l-0.1,0.3l0.6,0.1c0.1,0,0.1,0,0.2,0c0,0,0.6,0,1.2,0.6
			c0.6,0.6,1.3,2.1,1.1,5.2c0,0.2,0,0.4,0.1,0.6c0.1,0.1,0.6,0.9,1.5,1.4c0.1,0,0.1,0.1,0.2,0.1c0.4,0.1,10,2.6,16.1,2.9
			c-0.1,0.1-0.1,0.3-0.1,0.4C489.4,122.7,489.5,122.9,489.6,123.2C489.6,123.2,489.6,123.2,489.6,123.2z M490.6,42.7
			c0.4,0,0.7-0.2,0.9-0.6c0,0,0-0.1,0.1-0.2c1.5,0,8.4,0.7,20.4,8.5c0.2,0.1,0.4,0.2,0.5,0.4c14.5,9.6,27.1,11.9,47.1,14.6
			c-3,1.8-5.2,4-6.7,6.3c-21.2-7.8-31.5-13.2-35.5-15.6c18.2,11.3,33.4,16.3,34.8,16.8c-1.6,3-2.2,6-2.2,8.2c0,0.1,0,0.2,0,0.3
			c0,2.2,0.6,5.4,2.4,8.5c-0.3,0.1-15.5,4.9-34.4,16.6c3.9-2.3,14.1-7.7,35.1-15.4c1.5,2.3,3.7,4.6,6.7,6.4
			c-20.1,2.6-32.7,5-47.2,14.6c-0.2,0.1-0.4,0.2-0.5,0.4c-12,7.8-18.9,8.5-20.4,8.5c0-0.1-0.1-0.2-0.1-0.2c-0.1-0.4-0.5-0.6-0.9-0.6
			c-5.4,0-15.3-2.5-16.5-2.8c-0.2-0.1-0.4-0.3-0.5-0.5c0-0.9,0-1.8-0.1-2.5c18.1,4.1,28.2,0.5,28.2,0.5c-12,2.4-25.3-0.8-28.5-1.6
			c-0.3-1.1-0.7-2-1.4-2.7c-0.9-1-1.9-1.1-2.4-1.2l-4.8-3c-0.7-3.4-5.4-30-0.2-51.4c1-0.3,3.1-0.9,4.9-1.4c0.4,0,1.5-0.2,2.4-1.2
			c0.7-0.7,1.1-1.6,1.4-2.7c3.2-0.8,16.5-4,28.5-1.6c0,0-10.2-3.6-28.2,0.5c0.1-0.8,0.1-1.6,0.1-2.5c0.1-0.1,0.3-0.3,0.5-0.5
			C475.3,45.2,485.2,42.7,490.6,42.7z M452.8,46.6l-0.9,5.9l-3.8-0.5c0.4-2.9,1.6-8.4,4-9.7l0.2-0.2c0,0,1.9-1.6,12.4-0.8
			c2,0.3,4.4,0.6,4.7,0.7c3,1,4.8,0.3,5.2,0.1c4-1.5,13.7-2.5,15-2.6c0,0,0,0,0,0c-0.1,0.3-0.2,0.5-0.2,0.8c0,0.2,0.1,0.3,0.1,0.4
			c-6.1,0.3-15.7,2.8-16.1,2.9c-0.1,0-0.1,0-0.2,0.1c-0.9,0.5-1.4,1.3-1.5,1.4c-0.1,0.2-0.2,0.4-0.1,0.6c0.2,3.1-0.5,4.5-1.1,5.2
			c-0.6,0.6-1.2,0.6-1.2,0.6c0,0-2.3,0.7-4.1,1.3c-0.8,0.2-1.4,0.4-1.6,0.4v-4.3L452.8,46.6z M462.2,54.8l0.5,0.1
			c-1.7,7.1-2.3,14.7-2.4,21.9l0,0l-0.3,0C460,74.9,460.1,65.9,462.2,54.8z M458.8,54.3l3,0.5c-2.2,11.2-2.2,20.3-2.2,22.1l-1,0.1
			v-2.2l-1.9,0C457,70.9,457.9,59.7,458.8,54.3z M445.2,76.3l11.3-0.2l0,0l0,0l0.7,0v2.3l1.9-0.2v4.6l-2-0.1v2.2h-11.8v-0.7l5.3-1.5
			l-0.2-4.8l-5.2-1.2V76.3z"/>
		
			<rect x="444" y="14" transform="matrix(-1 8.976496e-11 -8.976496e-11 -1 912.53 157.9615)" class="st1" width="24.5" height="130"/>
		<path d="M563.5,70.4c-4.2,3.6-4.2,10.7-4.2,11c0,0,0,0.2,0,0.6c0,6,2.6,12.5,10.1,12.9c0.1,0,2.6,0,4.9-2.2
			c2.3-2.2,3.5-5.8,3.5-10.7l0-0.2v0c0-11.9-6.7-13.3-7-13.4C567.8,68.1,565.4,68.8,563.5,70.4z M576.3,81.9l0,0.2
			c0,4.5-1,7.7-3,9.6c-1.8,1.8-3.8,1.8-3.9,1.8c-8.1-0.4-8.7-8.9-8.7-11.5c0-0.3,0-0.5,0-0.6c0-0.1,0.1-6.8,3.8-9.9
			c1.6-1.4,3.6-1.9,6.1-1.6C570.7,70,576.3,71.3,576.3,81.9z"/>
		<path d="M517.5,56.1c-0.7-0.4-1.4-0.8-2-1.3C515.5,54.8,516.1,55.2,517.5,56.1z"/>
		<path d="M518,106.4c-1.4,0.8-2,1.3-2,1.3C516.6,107.3,517.3,106.8,518,106.4z"/>
		<path d="M466.9,55.7c-4.4,32.9,0.5,49.7,0.5,49.7C464,85.9,466.9,55.7,466.9,55.7z"/>
		<g>
			<path d="M429.9,108.2l0.2,8.1c0,2.7,0.1,5.4,0.2,8.1l0.2,8.1l0.3,8.1l0,0c0,0.6,0,1.2,0.1,1.8c0.1,0.6,0.2,1.2,0.5,1.8
				c0.1,0.3,0.3,0.6,0.5,0.8l0.3,0.4l0.4,0.3c0.1,0.1,0.3,0.2,0.4,0.2c0.1,0.1,0.3,0.1,0.4,0.2c0.1,0,0.3,0.1,0.4,0.1l0.4,0
				l-0.4-0.1c-0.1,0-0.3-0.1-0.4-0.1c-0.1-0.1-0.3-0.1-0.4-0.2c-0.1-0.1-0.2-0.2-0.3-0.3l-0.3-0.3l-0.2-0.4
				c-0.1-0.3-0.3-0.5-0.3-0.8c-0.2-0.5-0.3-1.1-0.3-1.7c0-0.6,0-1.2,0-1.7l0,0l0,0l0.3-8.1l0.2-8.1c0.1-2.7,0.1-5.4,0.2-8.1l0.2-8.1
				c0.1-5.4,0.2-10.8,0.2-16.1c0-5.4,0.1-10.8,0-16.1c0-5.4,0-10.8-0.1-16.1c-0.1-5.4-0.1-10.8-0.2-16.1l-0.2-8.1l-0.2-8.1
				c-0.1-2.7-0.2-5.4-0.3-8c0-1.3,0.2-2.6,0.5-3.9c0.3-1.3,0.8-2.6,1.8-3.5c-1,0.9-1.7,2.1-2.2,3.4c-0.4,1.3-0.7,2.6-0.9,4
				c-0.2,2.7-0.2,5.4-0.3,8.1l-0.2,8.1l-0.2,8.1c-0.1,5.4-0.2,10.8-0.2,16.1c-0.1,5.4-0.1,10.8-0.1,16.1c0,5.4,0,10.8,0,16.1
				C429.7,97.4,429.8,102.8,429.9,108.2z"/>
			<path d="M407.2,53.9c0,7.3,0,14.7-0.1,22l0.1,31.4l-47,0.7l47,0.7l0.1,15.6l0.2,16.1l0,0c0,0.6,0,1.2,0.1,1.8
				c0.1,0.6,0.2,1.2,0.4,1.8c0.1,0.3,0.3,0.5,0.4,0.8l0.3,0.4l0.3,0.3c0.1,0.1,0.3,0.2,0.4,0.2c0.1,0.1,0.3,0.1,0.4,0.2
				c0.1,0,0.3,0.1,0.4,0.1l0.4,0l-0.4-0.1c-0.2,0-0.3-0.1-0.4-0.1c-0.1-0.1-0.3-0.1-0.4-0.2c-0.1-0.1-0.3-0.1-0.4-0.2l-0.3-0.3
				l-0.3-0.4c-0.1-0.3-0.3-0.5-0.4-0.8c-0.2-0.6-0.3-1.1-0.4-1.7c-0.1-0.6-0.1-1.2,0-1.8l0,0l0,0l0.2-16.1l0.1-15.6l13.4,0.2
				l0.2,15.4l0.2,8.1l0.2,8.1l0,0c0,0.6,0,1.2,0.1,1.8c0.1,0.6,0.2,1.2,0.5,1.8c0.1,0.3,0.3,0.6,0.4,0.8l0.3,0.4l0.3,0.3
				c0.1,0.1,0.3,0.2,0.4,0.2c0.1,0.1,0.3,0.1,0.4,0.2c0.1,0,0.3,0.1,0.4,0.1l0.4,0l-0.4-0.1c-0.1,0-0.3-0.1-0.4-0.1
				c-0.1-0.1-0.3-0.1-0.4-0.2c-0.1-0.1-0.3-0.1-0.4-0.3l-0.3-0.3l-0.2-0.4c-0.1-0.3-0.3-0.5-0.4-0.8c-0.2-0.6-0.3-1.1-0.3-1.7
				c0-0.6-0.1-1.2,0-1.8l0,0l0,0l0.2-8.1l0.2-8.1L423,109l3.2,0c0,0,0,0,0,0c0.5,0,1-0.4,0.9-1c0-0.5-0.4-1-1-0.9l-3.2,0l0.1-15.1
				l0-16.1l-0.1-16.1l-0.1-5.5l4.6,0.1c0,0,0,0,0,0c0.5,0,1-0.5,1-1c0-0.5-0.5-1-1-0.9l-4.6,0.1l-0.1-8.9
				c-0.1-5.4-0.2-10.8-0.3-16.1c-0.1-2.7-0.2-5.4-0.2-8.1c0.1-1.3,0.2-2.7,0.6-3.9c0.3-1.3,0.9-2.6,1.8-3.5c-1,0.9-1.7,2.2-2.1,3.4
				c-0.4,1.3-0.7,2.6-0.8,4c-0.1,2.7-0.2,5.4-0.2,8.1c-0.1,5.4-0.2,10.8-0.3,16.1l-0.1,8.9L408,52.8c0-3.1,0-6.1,0-9.2l-0.1-16.1
				c0-2.7-0.1-5.4-0.1-8.1c0.1-1.3,0.3-2.7,0.6-4c0.4-1.3,0.9-2.6,1.9-3.5c-1,0.9-1.6,2.2-2,3.5c-0.4,1.3-0.6,2.6-0.7,4
				c-0.1,2.7-0.1,5.4-0.1,8.1l-0.1,16.1c0,3.1,0,6.1,0,9.2l-25.3,0.5L407.2,53.9z M421.4,54.2l-0.1,5.6l-0.1,16.1l0,16.1l0.1,15.1
				l-13.4,0.2l0.1-31.4c0-7.3,0-14.7-0.1-22L421.4,54.2z"/>
			<path d="M445.1,133.9h6l0.1-110.2l-6.1,0.1V133.9z M446,40.4c0-0.2,0.2-0.4,0.4-0.4c0.2,0,0.4,0.2,0.4,0.4l0,0
				c0,0.2-0.2,0.4-0.4,0.4C446.2,40.8,446,40.6,446,40.4L446,40.4z M446,74.2c0.1,0,0.2-0.1,0.3-0.1c0.3,0,0.5,0.2,0.5,0.5l0,0
				c0,0.3-0.2,0.5-0.5,0.5c-0.1,0-0.2,0-0.3-0.1V74.2z M446,75.5c0.1,0,0.2,0.1,0.3,0.1c0.5,0,1-0.4,1-1c0-0.5-0.4-1-1-1
				c-0.1,0-0.2,0-0.3,0.1V40.9c0.1,0.1,0.3,0.1,0.4,0.1c0.4,0,0.7-0.3,0.7-0.7c0-0.4-0.3-0.7-0.7-0.7c-0.2,0-0.3,0-0.4,0.1v-15
				l4.3-0.1L450.1,133H446V75.5z"/>
			<path d="M448,99.6c-0.5,0-1,0.4-1,1s0.4,1,1,1c0.5,0,1-0.4,1-1S448.6,99.6,448,99.6z M448.5,100.7c0,0.3-0.2,0.5-0.5,0.5
				c-0.3,0-0.5-0.2-0.5-0.5c0-0.3,0.2-0.5,0.5-0.5C448.3,100.2,448.5,100.4,448.5,100.7L448.5,100.7z"/>
			<path d="M448.7,43.3c-0.5,0-1,0.4-1,1c0,0.5,0.4,1,1,1c0.5,0,1-0.4,1-1C449.7,43.7,449.2,43.3,448.7,43.3z M449.2,44.4
				c0,0.3-0.2,0.5-0.5,0.5s-0.5-0.2-0.5-0.5c0-0.3,0.2-0.5,0.5-0.5S449.2,44,449.2,44.4L449.2,44.4z"/>
			<path d="M448.2,113.2c-0.5,0-1,0.4-1,1s0.4,1,1,1c0.5,0,1-0.4,1-1S448.7,113.2,448.2,113.2z M448.7,114.3c0,0.3-0.2,0.5-0.5,0.5
				c-0.3,0-0.5-0.2-0.5-0.5c0-0.3,0.2-0.5,0.5-0.5C448.4,113.8,448.7,114,448.7,114.3L448.7,114.3z"/>
			<path d="M448,125.9c-0.4,0-0.7,0.3-0.7,0.7c0,0.4,0.3,0.7,0.7,0.7c0.4,0,0.7-0.3,0.7-0.7C448.8,126.3,448.4,125.9,448,125.9z
				 M448.4,126.7c0,0.2-0.2,0.4-0.4,0.4c-0.2,0-0.4-0.2-0.4-0.4c0-0.2,0.2-0.4,0.4-0.4C448.2,126.3,448.4,126.5,448.4,126.7
				L448.4,126.7z"/>
			<path d="M447.9,66.9c0,0.4,0.3,0.7,0.7,0.7c0.4,0,0.7-0.3,0.7-0.7c0-0.4-0.3-0.7-0.7-0.7C448.2,66.2,447.9,66.5,447.9,66.9z
				 M449,66.9L449,66.9c0,0.2-0.2,0.4-0.4,0.4c-0.2,0-0.4-0.2-0.4-0.4c0-0.2,0.2-0.4,0.4-0.4C448.8,66.6,449,66.7,449,66.9z"/>
			<path d="M447,92.4c0,0.4,0.3,0.7,0.7,0.7c0.4,0,0.7-0.3,0.7-0.7c0-0.4-0.3-0.7-0.7-0.7C447.3,91.7,447,92,447,92.4z M447.7,92.1
				c0.2,0,0.4,0.2,0.4,0.4l0,0c0,0.2-0.2,0.4-0.4,0.4c-0.2,0-0.4-0.2-0.4-0.4C447.3,92.3,447.5,92.1,447.7,92.1z"/>
			<circle cx="448" cy="95" r="0.5"/>
			<circle cx="447.7" cy="48.6" r="0.5"/>
			<circle cx="447.5" cy="27" r="0.5"/>
			<circle cx="447.7" cy="36.8" r="0.5"/>
			<circle cx="448.3" cy="99" r="0.3"/>
			<circle cx="447.6" cy="62.5" r="0.3"/>
			<circle cx="448.4" cy="110.2" r="0.4"/>
			<circle cx="448.2" cy="123.7" r="0.4"/>
			<circle cx="448.1" cy="90.3" r="0.4"/>
			<circle cx="447.1" cy="80.4" r="0.3"/>
			<circle cx="447.2" cy="108.4" r="0.3"/>
			<circle cx="449.4" cy="117" r="0.3"/>
			<circle cx="447.8" cy="112.6" r="0.3"/>
			<circle cx="447.3" cy="122.8" r="0.3"/>
			<circle cx="449.3" cy="90.9" r="0.3"/>
			<circle cx="447.2" cy="70.2" r="0.3"/>
			<circle cx="448.1" cy="82.3" r="0.3"/>
			<circle cx="448.8" cy="71.9" r="0.3"/>
			<circle cx="447.7" cy="57.9" r="0.3"/>
			<circle cx="449.3" cy="35.5" r="0.3"/>
			<circle cx="448" cy="29.1" r="0.3"/>
			<circle cx="447.9" cy="42.4" r="0.3"/>
			<circle cx="448.9" cy="52.5" r="0.3"/>
			<path d="M468.4,144.5l3.3-0.1l-0.1-12.2h-1.8v-13.7h0V76.7h-0.1V56.2c0,0,0,0,0.1,0v-2l-0.1,0v-5.1h0.1v-0.9h-0.1v-7.1
				c0,0,0,0,0.1,0v-1.8c0,0,0,0-0.1,0V24.8h1.8l0-12l-3.1-0.1l-0.2-0.9l-25.4,0.4l-0.3,132.8l25.8,0.2L468.4,144.5z M466.6,22.8
				h-1.5v-8h-19.7v8.6h9.2l-2.4,0.7l-0.1,109.8l0.4,0.4l0.7,0.3h-7.8v7.7h19.7v-7.4h1.5v7.5l-0.1,0l-0.2,0.8l-21.7-0.3l0.1-128.4
				l21.7-0.3l0.1,0.7V22.8z M465.8,23.7v110.1h-1.5V23.7H465.8z M455.6,135.4l0.4,0.1l0-0.1h8.2v5.8h-17.9v-5.8H455.6z M454.9,133.9
				l-1.8-0.5l0.1-108.4l2.2-0.7l-0.1,109.6H454.9z M456.1,23.9l0-0.5h1.8L456.1,23.9z M458.8,24.3l-0.1,109.3h-0.5l-1.8-0.5
				l0.1-108.1L458.8,24.3z M457.5,134.5H456l0-0.5L457.5,134.5z M459.8,103.5l0-19.1h0.4V73.2h-0.4l0-19.4h0.4V41.5h-0.4l0-18.1h1.2
				v111.1h-1.4l0-18.8h0.4v-12.3H459.8z M462,133.9V23.7h1.5v110.1H462z M446.3,22.5v-6.8h17.9v6.8H446.3z M467.6,76.7h-0.1v57.1
				h-0.7V23.1l0.8,0.1V76.7z M467.7,14.8l1.7,0l0,7.9h-1.7V14.8z M467.7,134.5h1.6l0.1,7.7l-1.7,0.1V134.5z"/>
		</g>
	</g>
</g>
</svg>
